<?xml version="1.0" encoding="UTF-8" standalone="no"?>
<svg
   xmlns:dc="http://purl.org/dc/elements/1.1/"
   xmlns:cc="http://creativecommons.org/ns#"
   xmlns:rdf="http://www.w3.org/1999/02/22-rdf-syntax-ns#"
   xmlns:svg="http://www.w3.org/2000/svg"
   xmlns="http://www.w3.org/2000/svg"
   xmlns:sodipodi="http://sodipodi.sourceforge.net/DTD/sodipodi-0.dtd"
   xmlns:inkscape="http://www.inkscape.org/namespaces/inkscape"
   sodipodi:docname="arsenic_cbh_square_150.svg"
   id="svg3682"
   viewBox="-2 -2 102.03734 89.600153"
   height="311.52371"
   width="358.11182"
   version="1.1"
   inkscape:version="0.92.1 r15371"
   inkscape:export-filename="C:\Users\hiltonc\Documents\GitHub\Halve\images\arsenic_cbh_150_131.png"
   inkscape:export-xdpi="40.240181"
   inkscape:export-ydpi="40.240181">
  <metadata
     id="metadata3688">
    <rdf:RDF>
      <cc:Work
         rdf:about="">
        <dc:format>image/svg+xml</dc:format>
        <dc:type
           rdf:resource="http://purl.org/dc/dcmitype/StillImage" />
        <dc:title></dc:title>
      </cc:Work>
    </rdf:RDF>
  </metadata>
  <defs
     id="defs3686" />
  <sodipodi:namedview
     inkscape:current-layer="svg3682"
     inkscape:window-maximized="1"
     inkscape:window-y="-11"
     inkscape:window-x="-11"
     inkscape:cy="260.47752"
     inkscape:cx="171.15661"
     inkscape:zoom="1.8301587"
     borderlayer="false"
     inkscape:showpageshadow="true"
     inkscape:pagecheckerboard="true"
     fit-margin-bottom="0"
     fit-margin-right="0"
     fit-margin-left="0"
     fit-margin-top="0"
     inkscape:snap-page="true"
     showgrid="false"
     id="namedview3684"
     inkscape:window-height="1406"
     inkscape:window-width="2160"
     inkscape:pageshadow="2"
     inkscape:pageopacity="0"
     guidetolerance="10"
     gridtolerance="10"
     objecttolerance="10"
     borderopacity="1"
     bordercolor="#666666"
     pagecolor="#ffffff" />
  <path
     style="fill:#50c878;stroke:#000000;stroke-width:0.1287823;stroke-opacity:1"
     d="M 27.511633,21.293001 V 64.307075 H 70.525708 V 21.293001 Z m 4.738391,2.970533 H 65.78802 a 1.8588443,2.1368318 0 0 1 1.602063,3.218639 l -7.831085,15.318134 7.831085,15.317326 A 1.8588443,2.1368318 0 0 1 65.78802,61.33735 h -7.714489 -1.858009 v -4.27363 h 1.858009 4.465788 L 57.403052,47.017034 50.621085,60.283439 a 1.8588443,2.1368318 0 0 1 -3.204831,0 L 40.634054,47.017034 35.49802,57.06372 h 4.465556 1.858243 v 4.27363 H 39.963576 32.250024 A 1.8588443,2.1368318 0 0 1 30.647257,58.117633 L 38.478341,42.800307 30.647257,27.482173 a 1.8588443,2.1368318 0 0 1 1.602767,-3.218639 z m 3.247996,4.272551 5.136034,10.046955 5.136268,-10.046955 z m 16.768998,0 5.136034,10.046955 5.136267,-10.046955 z m -3.247997,2.080857 -6.22902,12.183365 6.22902,12.182827 6.228318,-12.182827 z"
     id="rect4613"
     inkscape:connector-curvature="0" />
</svg>
