<?xml version="1.0" encoding="UTF-8" standalone="no"?>
<svg
   xmlns:dc="http://purl.org/dc/elements/1.1/"
   xmlns:cc="http://creativecommons.org/ns#"
   xmlns:rdf="http://www.w3.org/1999/02/22-rdf-syntax-ns#"
   xmlns:svg="http://www.w3.org/2000/svg"
   xmlns="http://www.w3.org/2000/svg"
   xmlns:sodipodi="http://sodipodi.sourceforge.net/DTD/sodipodi-0.dtd"
   xmlns:inkscape="http://www.inkscape.org/namespaces/inkscape"
   sodipodi:docname="Arsenic_alchemical_symbol_300.svg"
   id="svg3682"
   viewBox="-2 -2 102.03734 89.600153"
   height="311.52371"
   width="358.11182"
   version="1.1"
   inkscape:version="0.92.1 r15371">
  <metadata
     id="metadata3688">
    <rdf:RDF>
      <cc:Work
         rdf:about="">
        <dc:format>image/svg+xml</dc:format>
        <dc:type
           rdf:resource="http://purl.org/dc/dcmitype/StillImage" />
        <dc:title></dc:title>
      </cc:Work>
    </rdf:RDF>
  </metadata>
  <defs
     id="defs3686" />
  <sodipodi:namedview
     inkscape:current-layer="svg3682"
     inkscape:window-maximized="1"
     inkscape:window-y="-11"
     inkscape:window-x="-11"
     inkscape:cy="151.19737"
     inkscape:cx="2.0455925"
     inkscape:zoom="1.8301587"
     borderlayer="false"
     inkscape:showpageshadow="true"
     inkscape:pagecheckerboard="true"
     fit-margin-bottom="0"
     fit-margin-right="0"
     fit-margin-left="0"
     fit-margin-top="0"
     inkscape:snap-page="true"
     showgrid="false"
     id="namedview3684"
     inkscape:window-height="1406"
     inkscape:window-width="2160"
     inkscape:pageshadow="2"
     inkscape:pageopacity="0"
     guidetolerance="10"
     gridtolerance="10"
     objecttolerance="10"
     borderopacity="1"
     bordercolor="#666666"
     pagecolor="#ffffff" />
  <path
     style="fill:#50c878;stroke:#000000;stroke-width:0.2575646;stroke-opacity:1"
     d="M 6.004526,-0.21403671 V 85.814113 H 92.032675 V -0.21403671 Z M 15.481309,5.7270295 H 82.5573 a 3.7176887,4.2736637 0 0 1 3.204126,6.4372785 L 70.099257,42.800576 85.761426,73.435229 A 3.7176887,4.2736637 0 0 1 82.5573,79.874662 H 67.128321 63.412304 v -8.54726 h 3.716017 8.931578 L 65.787365,51.234031 52.22343,77.766839 a 3.7176887,4.2736637 0 0 1 -6.409661,0 L 32.249368,51.234031 21.977301,71.327402 h 8.931111 3.716485 v 8.54726 H 30.908412 15.481309 A 3.7176887,4.2736637 0 0 1 12.275775,73.435229 L 27.937943,42.800576 12.275775,12.164308 a 3.7176887,4.2736637 0 0 1 3.205534,-6.4372785 z m 6.495992,8.5451035 10.272067,20.093909 10.272536,-20.093909 z m 33.537996,0 10.272068,20.093909 10.272534,-20.093909 z m -6.495994,4.161713 -12.458041,24.36673 12.458041,24.365653 12.456636,-24.365653 z"
     id="rect4613"
     inkscape:connector-curvature="0" />
</svg>
