<?xml version="1.0" encoding="UTF-8" standalone="no"?>
<svg
   xmlns:dc="http://purl.org/dc/elements/1.1/"
   xmlns:cc="http://creativecommons.org/ns#"
   xmlns:rdf="http://www.w3.org/1999/02/22-rdf-syntax-ns#"
   xmlns:svg="http://www.w3.org/2000/svg"
   xmlns="http://www.w3.org/2000/svg"
   xmlns:sodipodi="http://sodipodi.sourceforge.net/DTD/sodipodi-0.dtd"
   xmlns:inkscape="http://www.inkscape.org/namespaces/inkscape"
   sodipodi:docname="Arsenic_alchemical_symbol.svg"
   id="svg3682"
   viewBox="-2 -2 102.03734 89.600153"
   height="311.52371"
   width="358.11182"
   version="1.1"
   inkscape:version="0.92.1 r15371">
  <metadata
     id="metadata3688">
    <rdf:RDF>
      <cc:Work
         rdf:about="">
        <dc:format>image/svg+xml</dc:format>
        <dc:type
           rdf:resource="http://purl.org/dc/dcmitype/StillImage" />
        <dc:title></dc:title>
      </cc:Work>
    </rdf:RDF>
  </metadata>
  <defs
     id="defs3686" />
  <sodipodi:namedview
     inkscape:current-layer="svg3682"
     inkscape:window-maximized="1"
     inkscape:window-y="-11"
     inkscape:window-x="-11"
     inkscape:cy="194.90943"
     inkscape:cx="171.15661"
     inkscape:zoom="1.8301587"
     borderlayer="false"
     inkscape:showpageshadow="true"
     inkscape:pagecheckerboard="true"
     fit-margin-bottom="0"
     fit-margin-right="0"
     fit-margin-left="0"
     fit-margin-top="0"
     inkscape:snap-page="true"
     showgrid="false"
     id="namedview3684"
     inkscape:window-height="1406"
     inkscape:window-width="2160"
     inkscape:pageshadow="2"
     inkscape:pageopacity="0"
     guidetolerance="10"
     gridtolerance="10"
     objecttolerance="10"
     borderopacity="1"
     bordercolor="#666666"
     pagecolor="#ffffff" />
  <path
     style="fill:#50c878;stroke:#000000;stroke-width:1;stroke-opacity:1"
     d="M 0 0 L 0 311.52344 L 358.11133 311.52344 L 358.11133 0 L 0 0 z M 39.449219 21.513672 L 318.66797 21.513672 A 15.475707 15.475707 0 0 1 332.00586 44.824219 L 266.80859 155.76367 L 332.00586 266.69727 A 15.475707 15.475707 0 0 1 318.66797 290.01562 L 254.44141 290.01562 L 238.97266 290.01562 L 238.97266 259.06445 L 254.44141 259.06445 L 291.62109 259.06445 L 248.85938 186.30273 L 192.39648 282.38281 A 15.475707 15.475707 0 0 1 165.71484 282.38281 L 109.25 186.30273 L 66.490234 259.06445 L 103.66797 259.06445 L 119.13867 259.06445 L 119.13867 290.01562 L 103.66797 290.01562 L 39.449219 290.01562 A 15.475707 15.475707 0 0 1 26.105469 266.69727 L 91.302734 155.76367 L 26.105469 44.824219 A 15.475707 15.475707 0 0 1 39.449219 21.513672 z M 66.490234 52.457031 L 109.25 125.2207 L 152.01172 52.457031 L 66.490234 52.457031 z M 206.09961 52.457031 L 248.85938 125.2207 L 291.62109 52.457031 L 206.09961 52.457031 z M 179.05859 67.527344 L 127.19922 155.76367 L 179.05859 243.99609 L 230.91211 155.76367 L 179.05859 67.527344 z "
     transform="matrix(0.28761905,0,0,0.28761905,-2.4812196,-2)"
     id="rect4613" />
  <rect
     id="rect4613-5"
     width="102.99978"
     height="89.600151"
     x="-1.4912554"
     y="122.16348"
     style="fill:#50c878;stroke:#000000;stroke-width:0.28761905;stroke-opacity:1" />
  <path
     id="path3680-6"
     style="fill:none;stroke:#000000;stroke-width:9px;stroke-linecap:square;stroke-linejoin:round"
     d="m 74.301287,206.23325 c 6.85592,0 13.71183,0 20.56775,0 -14.90417,-25.81402 -29.80834,-51.62804 -44.712504,-77.44206 -14.904169,25.81402 -29.808341,51.62804 -44.7125091,77.44206 6.8559171,0 13.7118341,0 20.5677521,0 M 5.4440239,128.79119 c 14.9041681,25.81402 29.8083401,51.62804 44.7125091,77.44206 14.904164,-25.81402 29.808334,-51.62804 44.712504,-77.44206 -29.80834,0 -59.616673,0 -89.4250131,0 z"
     inkscape:connector-curvature="0" />
</svg>
